<svg xmlns="http://www.w3.org/2000/svg" viewBox="0 0 69.96 6.39"><defs><style>.bcec1cfb-48e0-4831-9f8a-742f5ab853ef{fill:#fff;}</style></defs><title>Nightingale Text Logo</title><g id="be0e1547-d88d-4727-af82-b0129b604018" data-name="Layer 2"><g id="a80fbbca-c739-4557-8ed4-c376c028a746" data-name="Layer 1"><path class="bcec1cfb-48e0-4831-9f8a-742f5ab853ef" d="M1.43.07H0V.3A1.2,1.2,0,0,1,.3.41.41.41,0,0,1,.44.53.63.63,0,0,1,.51.76a2.39,2.39,0,0,1,0,.46v4a3.07,3.07,0,0,1,0,.5.49.49,0,0,1-.13.26A.92.92,0,0,1,0,6.09v.22H1.67V6.09A1.81,1.81,0,0,1,1.37,6a.51.51,0,0,1-.15-.14.58.58,0,0,1-.06-.22,2.49,2.49,0,0,1,0-.45V4.24c0-.61,0-1.22,0-1.84s0-1-.05-1.27h.08c.06.12.12.24.19.36s.18.32.34.58L4.22,6.34H4.8V1.22a2.85,2.85,0,0,1,0-.48A.68.68,0,0,1,4.9.52.41.41,0,0,1,5,.4,1.17,1.17,0,0,1,5.33.3V.07H3.69V.3A1.26,1.26,0,0,1,4,.41a.3.3,0,0,1,.13.12.57.57,0,0,1,.07.22c0,.1,0,.25,0,.47v1c0,.44,0,.94,0,1.49s0,.92,0,1.11H4.2L4,4.32l-.28-.48Z"/><path class="bcec1cfb-48e0-4831-9f8a-742f5ab853ef" d="M9.28,1.22a2.59,2.59,0,0,1,0-.47A.57.57,0,0,1,9.38.52.44.44,0,0,1,9.53.4.86.86,0,0,1,9.82.3V.07H7.89V.3a1.51,1.51,0,0,1,.29.1.44.44,0,0,1,.14.13A.62.62,0,0,1,8.4.76a4.32,4.32,0,0,1,0,.46v4a3.07,3.07,0,0,1,0,.5.49.49,0,0,1-.12.26,1,1,0,0,1-.38.16v.22H9.82V6.09L9.51,6a.47.47,0,0,1-.14-.14.81.81,0,0,1-.07-.22c0-.1,0-.25,0-.45Z"/><path class="bcec1cfb-48e0-4831-9f8a-742f5ab853ef" d="M16.42,4.7c0-.19,0-.33,0-.43s0-.19.06-.26a.59.59,0,0,1,.13-.18.73.73,0,0,1,.25-.12V3.48H15v.23a.76.76,0,0,1,.36.16.51.51,0,0,1,.15.28,2.83,2.83,0,0,1,.05.6V5a1,1,0,0,1-.26.73,1.21,1.21,0,0,1-.8.23,1.19,1.19,0,0,1-.86-.32,2,2,0,0,1-.52-1A5.63,5.63,0,0,1,13,3.17a4.68,4.68,0,0,1,.21-1.5,2.11,2.11,0,0,1,.58-.95A1.34,1.34,0,0,1,14.63.4a1.61,1.61,0,0,1,.59.1,1,1,0,0,1,.41.33,2.13,2.13,0,0,1,.29.64h.45V.22A7,7,0,0,0,15.5.05a7.08,7.08,0,0,0-.82,0,2.46,2.46,0,0,0-1.41.4,2.52,2.52,0,0,0-.91,1.13A4.14,4.14,0,0,0,12,3.24a3.94,3.94,0,0,0,.58,2.35,2,2,0,0,0,1.74.8,2.86,2.86,0,0,0,.75-.09A2.59,2.59,0,0,0,15.73,6l.33.36.36-.1Z"/><path class="bcec1cfb-48e0-4831-9f8a-742f5ab853ef" d="M23.48,1.22a3.11,3.11,0,0,1,0-.54.36.36,0,0,1,.14-.24A.92.92,0,0,1,24,.3V.07H22.1V.3a1.06,1.06,0,0,1,.36.15.43.43,0,0,1,.13.22,2.28,2.28,0,0,1,0,.55V2.83H20.09V1.22c0-.22,0-.37,0-.47a.76.76,0,0,1,.08-.23A.41.41,0,0,1,20.33.4a1,1,0,0,1,.29-.1V.07H18.7V.3a2,2,0,0,1,.3.1.86.86,0,0,1,.14.13.9.9,0,0,1,.07.23,2.64,2.64,0,0,1,0,.46v4a3.07,3.07,0,0,1,0,.5.49.49,0,0,1-.12.26,1,1,0,0,1-.38.16v.22h1.92V6.09a1.81,1.81,0,0,1-.3-.11.47.47,0,0,1-.14-.14.57.57,0,0,1-.07-.22,2.7,2.7,0,0,1,0-.45V3.25h2.54V5.17a2.35,2.35,0,0,1,0,.54.38.38,0,0,1-.14.23,1,1,0,0,1-.35.15v.22H24V6.09A1.26,1.26,0,0,1,23.75,6a.48.48,0,0,1-.13-.09.41.41,0,0,1-.08-.13,1,1,0,0,1,0-.21,3.74,3.74,0,0,1,0-.4Z"/><path class="bcec1cfb-48e0-4831-9f8a-742f5ab853ef" d="M26.18,1.66h.46a4,4,0,0,1,.18-.6A1.39,1.39,0,0,1,27,.69.47.47,0,0,1,27.3.52a1.16,1.16,0,0,1,.35,0h.58V5.16a2.07,2.07,0,0,1,0,.41.9.9,0,0,1-.07.23.35.35,0,0,1-.11.13.54.54,0,0,1-.17.09l-.24.07v.22H29.7V6.09L29.37,6a.5.5,0,0,1-.17-.15.71.71,0,0,1-.09-.26,2.26,2.26,0,0,1,0-.42V.48h.58A1,1,0,0,1,30,.53a.6.6,0,0,1,.23.17,1,1,0,0,1,.21.34,4.13,4.13,0,0,1,.2.62h.45V.07H26.18Z"/><path class="bcec1cfb-48e0-4831-9f8a-742f5ab853ef" d="M34.69,1.22c0-.22,0-.37,0-.47a.76.76,0,0,1,.08-.23A.41.41,0,0,1,34.93.4a1,1,0,0,1,.29-.1V.07H33.29V.3l.3.1a.44.44,0,0,1,.14.13.62.62,0,0,1,.08.23,4.32,4.32,0,0,1,0,.46v4a3.07,3.07,0,0,1,0,.5.43.43,0,0,1-.13.26.92.92,0,0,1-.38.16v.22h1.93V6.09a1.81,1.81,0,0,1-.3-.11.47.47,0,0,1-.14-.14.57.57,0,0,1-.07-.22c0-.1,0-.25,0-.45Z"/><path class="bcec1cfb-48e0-4831-9f8a-742f5ab853ef" d="M39.24.07H37.81V.3a1,1,0,0,1,.29.11.33.33,0,0,1,.14.12.48.48,0,0,1,.08.23,2.64,2.64,0,0,1,0,.46v4a3.07,3.07,0,0,1,0,.5.49.49,0,0,1-.12.26,1,1,0,0,1-.38.16v.22h1.67V6.09L39.17,6A.47.47,0,0,1,39,5.84.81.81,0,0,1,39,5.62c0-.1,0-.25,0-.45V4.24c0-.61,0-1.22,0-1.84s0-1,0-1.27H39c.06.12.12.24.19.36s.18.32.33.58L42,6.34h.57V1.22a2.57,2.57,0,0,1,0-.48.51.51,0,0,1,.08-.22A.33.33,0,0,1,42.85.4a1,1,0,0,1,.29-.1V.07H41.49V.3a1.2,1.2,0,0,1,.3.11.37.37,0,0,1,.13.12A.58.58,0,0,1,42,.75a2.84,2.84,0,0,1,0,.47v1c0,.44,0,.94,0,1.49s0,.92,0,1.11H42c-.08-.17-.15-.32-.23-.46s-.16-.3-.27-.48Z"/><path class="bcec1cfb-48e0-4831-9f8a-742f5ab853ef" d="M49.7,4.7c0-.19,0-.33,0-.43A.91.91,0,0,1,49.77,4a.46.46,0,0,1,.13-.18.67.67,0,0,1,.24-.12V3.48H48.3v.23a.86.86,0,0,1,.36.16.58.58,0,0,1,.15.28,3,3,0,0,1,0,.6V5a.92.92,0,0,1-.26.73,1.19,1.19,0,0,1-.8.23,1.17,1.17,0,0,1-.85-.32,1.91,1.91,0,0,1-.52-1,5.63,5.63,0,0,1-.18-1.53,4.68,4.68,0,0,1,.21-1.5A2.11,2.11,0,0,1,47,.72,1.32,1.32,0,0,1,47.9.4a1.71,1.71,0,0,1,.6.1,1,1,0,0,1,.4.33,2.13,2.13,0,0,1,.3.64h.45V.22a7,7,0,0,0-.87-.17A7.37,7.37,0,0,0,48,0a2.46,2.46,0,0,0-1.41.4,2.54,2.54,0,0,0-.92,1.13,4.31,4.31,0,0,0-.32,1.71,3.93,3.93,0,0,0,.59,2.35,2,2,0,0,0,1.74.8,2.73,2.73,0,0,0,.74-.09A2.5,2.5,0,0,0,49,6l.33.36.36-.1Z"/><path class="bcec1cfb-48e0-4831-9f8a-742f5ab853ef" d="M54.72.9l.87,2.94H53.68Zm2.82,5.41V6.09a.8.8,0,0,1-.32-.16A.84.84,0,0,1,57,5.64c0-.13-.12-.31-.19-.54L55.27,0h-.73l-1.9,5.06a2.88,2.88,0,0,1-.37.73.73.73,0,0,1-.45.3v.22h2V6.09a.82.82,0,0,1-.42-.17.54.54,0,0,1-.14-.4,1.27,1.27,0,0,1,0-.32,3.45,3.45,0,0,1,.15-.51l.16-.45h2.13l.16.59a2.83,2.83,0,0,1,.11.41,1.35,1.35,0,0,1,0,.33.54.54,0,0,1-.06.27.36.36,0,0,1-.17.15,1.6,1.6,0,0,1-.34.1v.22Z"/><path class="bcec1cfb-48e0-4831-9f8a-742f5ab853ef" d="M60.88,1.22a2.72,2.72,0,0,1,0-.48A.56.56,0,0,1,61,.51.3.3,0,0,1,61.13.4a1.17,1.17,0,0,1,.29-.1V.07H59.49V.3l.3.1a.58.58,0,0,1,.14.13A.63.63,0,0,1,60,.76a2.39,2.39,0,0,1,0,.46v4a3.07,3.07,0,0,1,0,.5.49.49,0,0,1-.13.26.92.92,0,0,1-.38.16v.22H63.6l.09-1.83h-.46c-.06.27-.11.48-.15.62a2.45,2.45,0,0,1-.13.34,1,1,0,0,1-.15.22.46.46,0,0,1-.17.14,1,1,0,0,1-.22.07l-.33,0h-1.2Z"/><path class="bcec1cfb-48e0-4831-9f8a-742f5ab853ef" d="M65.64.07V.3a1,1,0,0,1,.29.11.33.33,0,0,1,.14.12.62.62,0,0,1,.08.23,4.32,4.32,0,0,1,0,.46v4a3.07,3.07,0,0,1,0,.5.49.49,0,0,1-.12.26,1,1,0,0,1-.38.16v.22h4.23L70,4.71H69.5c-.06.21-.1.36-.14.47a1.69,1.69,0,0,1-.13.31.8.8,0,0,1-.18.25.62.62,0,0,1-.24.13,1.19,1.19,0,0,1-.36,0H67V3.27h1a.67.67,0,0,1,.32.06.51.51,0,0,1,.18.2,1.56,1.56,0,0,1,.14.42h.43V2.19h-.43a1.53,1.53,0,0,1-.14.43.39.39,0,0,1-.19.19.68.68,0,0,1-.31.06H67V.47h1.44a1.42,1.42,0,0,1,.31,0A.85.85,0,0,1,69,.59a.79.79,0,0,1,.17.19,1.77,1.77,0,0,1,.15.28,2.49,2.49,0,0,1,.14.39h.45V.07Z"/></g></g></svg>